<svg width="163" height="163" viewBox="0 0 163 163" fill="none" xmlns="http://www.w3.org/2000/svg">
<path d="M135.426 37.9656V124.899C135.426 127.933 134.543 130.649 132.777 133.049C131.011 135.403 128.634 136.988 125.646 137.803L86.7296 149.009C86.1863 149.145 85.5751 149.281 84.8959 149.417H83.4017C81.9075 149.417 80.5492 149.213 79.3267 148.806C78.1042 148.398 76.8591 147.855 75.5913 147.176L50.1226 132.777C49.1717 132.234 48.4246 131.532 47.8813 130.672C47.338 129.812 47.0663 128.838 47.0663 127.751C47.0663 126.121 47.6549 124.74 48.8321 123.608C49.9641 122.477 51.3451 121.911 52.9751 121.911H85.9826V41.701L61.1251 50.5302C59.1781 51.2546 57.5934 52.5224 56.3709 54.3335C55.1484 56.0541 54.5371 57.9784 54.5371 60.1064V105.814C54.5371 107.716 54.0617 109.437 53.1109 110.976C52.2053 112.515 50.9149 113.738 49.2396 114.643L37.558 121.028C36.4713 121.616 35.3846 121.911 34.298 121.911C32.4416 121.911 30.8569 121.254 29.5438 119.941C28.2307 118.628 27.5742 117.021 27.5742 115.119V50.7339C27.5742 48.3795 28.1855 46.1835 29.408 44.146C30.6757 41.8821 32.3284 40.1615 34.3659 38.9843L76.2026 15.2135C77.1534 14.6702 78.1721 14.2627 79.2588 13.991C80.3455 13.7193 81.4321 13.5835 82.5188 13.5835C83.2885 13.5835 83.9903 13.6514 84.6242 13.7872C85.2581 13.8778 85.9599 14.0363 86.7296 14.2627L125.646 25.0614C127.14 25.4689 128.476 26.0802 129.653 26.8952C130.83 27.7102 131.849 28.6836 132.709 29.8156C133.615 30.9928 134.294 32.2606 134.747 33.6189C135.2 35.0225 135.426 36.4714 135.426 37.9656ZM126.461 124.899V37.9656C126.461 36.9242 126.189 36.0186 125.646 35.2489C124.967 34.3886 124.129 33.8679 123.133 33.6868L103.98 28.3893C102.577 27.9818 101.083 27.5743 99.498 27.1668C98.0038 26.6688 96.5323 26.2386 95.0834 25.8764V137.26L123.133 129.042C124.129 128.861 124.967 128.385 125.646 127.616C126.189 126.846 126.461 125.94 126.461 124.899Z" fill="#F24E1E"/>
</svg>
